# xmcd
#
# Track frame offsets:
#	150
#	23356
#	37868
#	50463
#	65765
#	75345
#	87247
#	100593
#	110624
#	124587
#	138294
#	149532
#	161560
#	174177
#	187247
#	199955
#	212046
#	226280
#	241920
#	255166
#	267817
#	281302
#	294386
#	308061
#	320897
#
# Disc length: 4468 seconds
# Revision: 0
# Processed by: cddbd v1.5.2PL0 Copyright (c) Steve Scherf et al.
# Submitted via: dBpowerAMP V12.0
#
DISCID=55117219
DTITLE=Various Artist - The Blues [CD4 - Every Day I Have The Blues)
DYEAR=1900
DGENRE=Blues
TTITLE0=B. B. King - You Done Lost Your Good Thing Now
TTITLE1=Freddy King - You've Got To Love Her With A Feeling
TTITLE2=Elmore James - The Sky Is Crying 
TTITLE3=Willie Dixon - That's My Baby
TTITLE4=Slim Harpo - Strange Love
TTITLE5=Jimmy Reed - Honest I Do
TTITLE6=Bobby "Blue" Bland - Farther Up The Road
TTITLE7=John Lee Hooker - Dimples
TTITLE8=Otis Rush - I Can't Quit You Baby
TTITLE9=Little Walter - You're So Fine
TTITLE10=Bo Diddley - Who Do You Love?
TTITLE11=Muddy Waters - Trouble No More
TTITLE12=B. B. King - Every Day I Have The Blues
TTITLE13=Howlin' Wolf - Evil (Is Going On)
TTITLE14=Big Mama Thornton - Hound Dog
TTITLE15=Lightnin' Hopkins - Coffee Blues
TTITLE16=Little Walter - Sad Hours
TTITLE17=Sonny Boy Williamson (II) - Nine Below Zero
TTITLE18=Muddy Waters - She Moves Me
TTITLE19=Lowell Fulson - Blue Shadows
TTITLE20=John Lee Hooker - Crawling King Snake
TTITLE21=Arthur "Big Boy" Crudup - That's All Right
TTITLE22=Big Bill Broonzy - Key To The Highway
TTITLE23=Robert Johnson - Ramblin' On My Mind
TTITLE24=Memphis Minnie - When The Levee Breaks
EXTD=
EXTT0=
EXTT1=
EXTT2=
EXTT3=
EXTT4=
EXTT5=
EXTT6=
EXTT7=
EXTT8=
EXTT9=
EXTT10=
EXTT11=
EXTT12=
EXTT13=
EXTT14=
EXTT15=
EXTT16=
EXTT17=
EXTT18=
EXTT19=
EXTT20=
EXTT21=
EXTT22=
EXTT23=
EXTT24=
PLAYORDER=
